<svg width="625" height="900" viewBox="0 0 625 900" fill="none" xmlns="http://www.w3.org/2000/svg">
<path d="M461.295 412.975C405.191 412.975 359.549 367.383 359.549 311.34C359.549 255.297 405.191 209.704 461.295 209.704C517.398 209.704 563.04 255.297 563.04 311.34C563.04 367.383 517.398 412.975 461.295 412.975ZM461.295 233.064C418.114 233.064 382.934 268.206 382.934 311.34C382.934 354.473 418.114 389.615 461.295 389.615C504.475 389.615 539.758 354.473 539.758 311.34C539.758 268.206 504.577 233.064 461.295 233.064Z" fill="#555555"/>
<path d="M497.398 311.34C497.398 331.318 481.193 347.404 461.295 347.404C441.397 347.404 425.192 331.216 425.192 311.34C425.192 291.463 441.397 275.275 461.295 275.275C481.193 275.275 497.398 291.463 497.398 311.34Z" fill="#555555"/>
<path d="M556.784 309.598L542.219 291.361L888.892 13.9123C890.738 12.3754 891.148 10.4288 891.251 9.40424C891.251 8.37968 891.251 6.33058 889.61 4.58884L777.813 -115.694C776.069 -117.538 773.915 -117.743 772.89 -117.743C771.762 -117.743 769.71 -117.333 768.172 -115.386L490.731 229.785L472.577 215.134L749.915 -129.832C755.351 -136.594 763.351 -140.59 772.069 -140.898C780.48 -141.512 788.993 -137.824 794.839 -131.472L906.636 -11.1893C912.277 -5.14439 915.149 2.94957 914.533 11.146C913.918 19.3424 909.918 27.0265 903.456 32.1493L556.784 309.598Z" fill="#555555"/>
<path d="M598.147 82.9295L580.858 98.5068L672.774 200.301L690.063 184.723L598.147 82.9295Z" fill="#555555"/>
<path d="M536.293 158.963L518.885 174.407L598.164 263.574L615.572 248.13L536.293 158.963Z" fill="#555555"/>
<path d="M765.71 764.499C764.992 764.499 764.274 764.499 763.556 764.499C755.351 763.884 747.659 759.888 742.53 753.434L464.782 407.135L483.039 392.587L760.787 738.885C762.326 740.729 764.274 741.139 765.3 741.242C766.326 741.242 768.377 741.242 770.121 739.602L890.533 627.926C892.379 626.184 892.584 624.135 892.584 623.008C892.584 621.881 892.174 619.832 890.225 618.295L544.681 341.154L559.348 323.02L904.892 600.161C911.662 605.591 915.662 613.582 915.969 622.291C916.277 630.897 912.79 639.196 906.533 645.036L786.121 756.712C780.582 761.835 773.403 764.601 765.915 764.601L765.71 764.499Z" fill="#555555"/>
<path d="M676.013 431.101L574.065 523.022L589.665 540.287L691.613 448.366L676.013 431.101Z" fill="#555555"/>
<path d="M600.101 369.095L510.824 448.273L526.282 465.665L615.559 386.486L600.101 369.095Z" fill="#555555"/>
<path d="M359.549 309.598L12.9793 32.1493C6.51761 27.0265 2.51754 19.3424 1.90214 11.146C1.28674 2.94955 4.15859 -5.24687 9.79971 -11.1893L121.597 -131.472C127.443 -137.824 135.443 -141.41 144.366 -141C152.982 -140.693 161.084 -136.697 166.52 -129.935L443.961 215.237L425.807 229.888L148.264 -115.284C146.623 -117.23 144.571 -117.64 143.546 -117.64C142.623 -117.64 140.366 -117.435 138.622 -115.591L26.8256 4.69128C25.1846 6.53548 25.082 8.48212 25.082 9.50667C25.082 10.5312 25.5949 12.4779 27.441 14.0147L374.114 291.463L359.549 309.7V309.598Z" fill="#555555"/>
<path d="M85.6985 77.9467L68.3649 62.3736L192.88 -76.6581L210.316 -61.1874L85.6985 77.9467Z" fill="#555555"/>
<path d="M258.413 3.77558L149.012 124.171L166.252 139.802L275.652 19.407L258.413 3.77558Z" fill="#555555"/>
<path d="M318.205 83.0036L226.253 184.765L243.536 200.349L335.488 98.5869L318.205 83.0036Z" fill="#555555"/>
<path d="M380.099 158.946L300.835 248.127L318.246 263.568L397.509 174.387L380.099 158.946Z" fill="#555555"/>
<path d="M150.725 764.499C143.238 764.499 135.956 761.63 130.52 756.61L10.1074 644.934C3.74836 639.094 0.363685 630.795 0.671383 622.189C0.979081 613.582 4.97914 605.488 11.7485 600.161L364.678 316.77L379.345 334.904L26.3128 618.193C24.3641 619.832 23.9538 621.881 23.9538 622.906C23.9538 624.033 24.159 626.082 26.0052 627.824L146.417 739.5C148.264 741.139 150.315 741.139 151.238 741.139C152.264 741.139 154.212 740.627 155.751 738.783L433.499 392.484L451.756 407.033L174.008 753.331C168.879 759.684 161.187 763.782 153.084 764.397C152.366 764.397 151.648 764.397 150.93 764.397L150.725 764.499Z" fill="#555555"/>
<path d="M204.162 698.108L64.8776 573.625L80.4676 556.208L219.649 680.691L204.162 698.108Z" fill="#555555"/>
<path d="M161.07 491.149L145.437 508.384L266.057 617.561L281.691 600.326L161.07 491.149Z" fill="#555555"/>
<path d="M240.379 431.21L224.785 448.48L326.765 540.365L342.359 523.095L240.379 431.21Z" fill="#555555"/>
<path d="M316.186 369.216L300.728 386.608L390.005 465.787L405.463 448.395L316.186 369.216Z" fill="#555555"/>
<path d="M590.528 585.92L460.166 426.909L325.292 592.579C325.292 592.579 267.855 848.717 249.086 900.662H681.196L590.528 586.022V585.92ZM399.345 732.943C399.345 670.65 420.576 591.759 464.679 591.759C508.783 591.759 534.629 667.167 534.629 732.943C454.525 763.27 399.345 732.943 399.345 732.943Z" fill="#555555"/>
</svg>
