<svg width="116" height="80" viewBox="0 0 116 80" fill="none" xmlns="http://www.w3.org/2000/svg">
<g clip-path="url(#clip0_8_34816)">
<path d="M57.6352 32.5389C54.337 32.5389 51.6538 29.861 51.6538 26.5691C51.6538 23.2773 54.337 20.5994 57.6352 20.5994C60.9334 20.5994 63.6165 23.2773 63.6165 26.5691C63.6165 29.861 60.9334 32.5389 57.6352 32.5389ZM57.6352 21.9715C55.0967 21.9715 53.0286 24.0356 53.0286 26.5691C53.0286 29.1027 55.0967 31.1668 57.6352 31.1668C60.1736 31.1668 62.2478 29.1027 62.2478 26.5691C62.2478 24.0356 60.1797 21.9715 57.6352 21.9715Z" fill="#266524"/>
<path d="M59.7577 26.5692C59.7577 27.7427 58.805 28.6875 57.6352 28.6875C56.4655 28.6875 55.5128 27.7367 55.5128 26.5692C55.5128 25.4017 56.4655 24.4509 57.6352 24.4509C58.805 24.4509 59.7577 25.4017 59.7577 26.5692Z" fill="#266524"/>
<path d="M63.2488 26.4669L62.3926 25.3957L82.7726 9.09913C82.8811 9.00886 82.9052 8.89452 82.9113 8.83434C82.9113 8.77416 82.9113 8.6538 82.8148 8.5515L76.2425 1.48645C76.14 1.37813 76.0134 1.36609 75.9531 1.36609C75.8868 1.36609 75.7662 1.39016 75.6758 1.5045L59.3657 21.7789L58.2985 20.9183L74.6025 0.655977C74.9221 0.258794 75.3924 0.0240945 75.9049 0.00604072C76.3993 -0.0300668 76.8998 0.186578 77.2434 0.55969L83.8157 7.62473C84.1473 7.97979 84.3162 8.45521 84.28 8.93664C84.2438 9.41808 84.0086 9.86942 83.6288 10.1703L63.2488 26.4669Z" fill="#266524"/>
<path d="M79.3478 12.8603L72.0278 4.688L73.0468 3.7793L80.3728 11.9456L79.3478 12.8603Z" fill="#266524"/>
<path d="M69.2036 8.50382L68.1893 9.42108L74.6145 16.4983L75.6288 15.5811L69.2036 8.50382Z" fill="#266524"/>
<path d="M65.6804 13.153L64.6641 14.068L70.0676 20.0471L71.0839 19.1321L65.6804 13.153Z" fill="#266524"/>
<path d="M62.0441 17.619L61.0208 18.5261L65.6814 23.7635L66.7048 22.8564L62.0441 17.619Z" fill="#266524"/>
<path d="M75.531 53.1864C75.4888 53.1864 75.4466 53.1864 75.4044 53.1864C74.922 53.1503 74.4698 52.9156 74.1684 52.5365L57.8402 32.1959L58.9135 31.3414L75.2416 51.6819C75.3321 51.7903 75.4466 51.8143 75.5069 51.8204C75.5672 51.8204 75.6878 51.8204 75.7903 51.7241L82.8691 45.1645C82.9776 45.0622 82.9896 44.9419 82.9896 44.8757C82.9896 44.8095 82.9655 44.6891 82.851 44.5989L62.5373 28.3204L63.3995 27.2552L83.7132 43.5337C84.1111 43.8526 84.3463 44.322 84.3644 44.8335C84.3825 45.3391 84.1775 45.8265 83.8097 46.1695L76.7309 52.7291C76.4053 53.03 75.9833 53.1924 75.5431 53.1924L75.531 53.1864Z" fill="#266524"/>
<path d="M72.3836 49.2868L71.4731 48.2637L79.6613 40.952L80.5718 41.975L72.3836 49.2868Z" fill="#266524"/>
<path d="M74.9107 37.1161L67.8253 43.535L68.7452 44.5465L75.8306 38.1276L74.9107 37.1161Z" fill="#266524"/>
<path d="M70.2579 33.6036L64.2646 39.0028L65.1817 40.0169L71.175 34.6177L70.2579 33.6036Z" fill="#266524"/>
<path d="M65.7953 29.9615L60.5469 34.6122L61.4556 35.6338L66.704 30.9831L65.7953 29.9615Z" fill="#266524"/>
<path d="M51.6539 26.4669L31.2799 10.1703C30.9001 9.86943 30.6649 9.41809 30.6287 8.93665C30.5925 8.45522 30.7614 7.97378 31.093 7.62474L37.6653 0.559698C38.0089 0.186586 38.4793 -0.0240412 39.0038 3.04712e-05C39.5103 0.0180843 39.9866 0.252783 40.3062 0.649966L56.6163 20.9244L55.549 21.7849L39.2329 1.51053C39.1365 1.39619 39.0159 1.37212 38.9556 1.37212C38.9013 1.37212 38.7687 1.38415 38.6662 1.49248L32.0939 8.55752C31.9974 8.66584 31.9914 8.78018 31.9914 8.84036C31.9914 8.90054 32.0216 9.01488 32.1301 9.10515L52.5101 25.4017L51.6539 26.4729V26.4669Z" fill="#266524"/>
<path d="M35.5549 12.8603L34.5359 11.9456L41.8558 3.7793L42.8808 4.688L35.5549 12.8603Z" fill="#266524"/>
<path d="M45.7084 8.50372L39.277 15.5754L40.2904 16.4935L46.7218 9.42187L45.7084 8.50372Z" fill="#266524"/>
<path d="M49.2233 13.1574L43.8177 19.1346L44.8338 20.0499L50.2394 14.0727L49.2233 13.1574Z" fill="#266524"/>
<path d="M52.862 17.618L48.2023 22.8562L49.2258 23.7632L53.8855 18.5249L52.862 17.618Z" fill="#266524"/>
<path d="M39.3776 53.1865C38.9374 53.1865 38.5093 53.018 38.1898 52.7231L31.111 46.1635C30.7372 45.8205 30.5382 45.3331 30.5563 44.8276C30.5744 44.3221 30.8096 43.8466 31.2075 43.5337L51.9553 26.8881L52.8176 27.9533L32.0637 44.5929C31.9491 44.6891 31.925 44.8095 31.925 44.8697C31.925 44.9359 31.9371 45.0562 32.0456 45.1585L39.1244 51.7181C39.2329 51.8144 39.3535 51.8144 39.4078 51.8144C39.468 51.8144 39.5826 51.7843 39.6731 51.676L56.0012 31.3354L57.0745 32.1899L40.7463 52.5305C40.4448 52.9036 39.9926 53.1443 39.5163 53.1804C39.4741 53.1804 39.4319 53.1804 39.3897 53.1804L39.3776 53.1865Z" fill="#266524"/>
<path d="M42.519 49.2869L34.3308 41.9751L35.2473 40.952L43.4295 48.2638L42.519 49.2869Z" fill="#266524"/>
<path d="M39.9857 37.1307L39.0667 38.143L46.1576 44.5558L47.0767 43.5435L39.9857 37.1307Z" fill="#266524"/>
<path d="M44.6481 33.61L43.7313 34.6244L49.7265 40.0215L50.6432 39.0071L44.6481 33.61Z" fill="#266524"/>
<path d="M49.1047 29.9687L48.1959 30.9902L53.4443 35.641L54.353 34.6194L49.1047 29.9687Z" fill="#266524"/>
<path d="M65.2325 42.6972L57.5689 33.3574L49.64 43.0884C49.64 43.0884 46.2634 58.1332 45.16 61.1843H70.5627L65.2325 42.7033V42.6972ZM53.9934 51.333C53.9934 47.6741 55.2415 43.0403 57.8342 43.0403C60.427 43.0403 61.9464 47.4695 61.9464 51.333C57.2373 53.1143 53.9934 51.333 53.9934 51.333Z" fill="#266524"/>
<path d="M46.1488 59.8904L25.9678 61.1782H46.2031L46.1488 59.8904Z" fill="#266524"/>
<path d="M69.8511 59.8904L90.0322 61.1782H69.7969L69.8511 59.8904Z" fill="#266524"/>
</g>
<path d="M12.2311 76.7721C12.2803 77.3814 12.3788 77.8923 12.5265 78.305C12.684 78.7079 12.9252 79.0714 13.2501 79.3957L13.0581 79.6315H9.82399L9.64678 79.1304L9.98643 79.042C10.3015 78.9437 10.5181 78.8209 10.6362 78.6735C10.7642 78.5163 10.8282 78.2854 10.8282 77.9808L10.7987 77.4354L10.3704 71.2892L7.28396 78.5703H6.48651L3.40007 71.2892L3.07519 75.8288C3.01612 76.5167 2.98658 76.9981 2.98658 77.2733C2.98658 77.6761 3.02596 78.0201 3.10472 78.305C3.19333 78.5801 3.33116 78.8553 3.51822 79.1304L3.69543 79.3957L3.47391 79.6315H0.6976L0.535156 79.1304L0.874812 79.042C1.25877 78.924 1.51966 78.7767 1.6575 78.5998C1.80517 78.4229 1.89378 78.1134 1.92331 77.6712L2.32204 71.8346C2.33188 71.7068 2.34665 71.53 2.36634 71.304C2.38603 71.078 2.39588 70.8765 2.39588 70.6997C2.39588 70.3656 2.33188 70.1248 2.2039 69.9774C2.08576 69.8301 1.86424 69.7171 1.53935 69.6384L1.1997 69.55L1.36214 69.0489H4.04985L7.09198 76.4626L10.2227 69.0489H12.3493L12.5708 69.2847L12.3936 69.55C12.2065 69.8251 12.0687 70.1052 11.9801 70.3901C11.9013 70.6653 11.8619 71.0043 11.8619 71.4071C11.8619 71.5545 11.8865 71.9967 11.9358 72.7336L12.2311 76.7721Z" fill="#1C4B1B"/>
<path d="M17.2506 77.6712C17.2506 77.9857 17.2752 78.2215 17.3244 78.3787C17.3737 78.5359 17.4623 78.644 17.5903 78.703C17.7281 78.7619 17.9299 78.7914 18.1957 78.7914H19.7906C20.1451 78.7914 20.4207 78.757 20.6176 78.6882C20.8145 78.6096 20.9671 78.4819 21.0754 78.305C21.1936 78.1183 21.3019 77.8432 21.4003 77.4796L21.4889 77.1406L21.991 77.3175V79.8379L21.6957 80L21.5775 79.8379C21.4692 79.7003 21.2625 79.6315 20.9573 79.6315H14.7401L14.5777 79.1599L14.8878 79.0714C15.2521 78.9634 15.4933 78.8258 15.6114 78.6587C15.7295 78.4917 15.7886 78.1969 15.7886 77.7744V72.0114C15.7886 71.4219 15.7394 70.9453 15.6409 70.5817C15.5425 70.2182 15.3702 69.8743 15.1241 69.55L14.9321 69.2847L15.1241 69.0489H19.643C20.4896 69.0489 21.0508 68.9457 21.3265 68.7394L21.5923 68.5478L21.8286 68.7394V71.3629L21.3265 71.5398L21.2379 71.2008C21.1394 70.8372 21.0311 70.567 20.913 70.3901C20.8047 70.2034 20.6521 70.0757 20.4552 70.0069C20.2583 69.9283 19.9826 69.889 19.6282 69.889H18.1957C17.9299 69.889 17.7281 69.9185 17.5903 69.9774C17.4623 70.0364 17.3737 70.1445 17.3244 70.3017C17.2752 70.4589 17.2506 70.6947 17.2506 71.0092V73.8391H19.1261C19.3624 73.8391 19.5691 73.7899 19.7463 73.6917C19.9334 73.5836 20.1155 73.4067 20.2927 73.1611L20.4109 72.999L20.7062 73.1611V75.6815L20.2041 75.8583L20.1155 75.5193C20.0269 75.1852 19.8694 74.9642 19.643 74.8561C19.4264 74.7382 19.0473 74.6792 18.5058 74.6792H17.2506V77.6712Z" fill="#1C4B1B"/>
<path d="M32.0973 69.55C31.8413 69.8743 31.6641 70.2182 31.5656 70.5817C31.4672 70.9453 31.4179 71.4219 31.4179 72.0114V77.7744C31.4179 78.2067 31.477 78.5064 31.5951 78.6735C31.7133 78.8307 31.9545 78.9634 32.3188 79.0714L32.6141 79.1599L32.4664 79.6315H28.8484L28.6712 79.1304L29.0108 79.042C29.2766 78.9634 29.4735 78.8798 29.6015 78.7914C29.7295 78.703 29.8181 78.5752 29.8673 78.4082C29.9264 78.2313 29.9559 77.9857 29.9559 77.6712V71.0092C29.9559 70.6947 29.9313 70.4589 29.8821 70.3017C29.8329 70.1445 29.7394 70.0364 29.6015 69.9774C29.4735 69.9087 29.2766 69.8743 29.0108 69.8743H28.5826C28.2872 69.8743 28.0657 69.9185 27.918 70.0069C27.7703 70.0855 27.6867 70.2378 27.667 70.4638C27.4602 72.9596 27.1993 74.8905 26.8843 76.2563C26.5692 77.6123 26.2 78.5507 25.7767 79.0714C25.3534 79.5824 24.8365 79.8379 24.2261 79.8379C23.7929 79.8379 23.4287 79.7101 23.1333 79.4547C22.838 79.1992 22.6903 78.8356 22.6903 78.364C22.6903 78.079 22.7592 77.8579 22.897 77.7007C23.0349 77.5337 23.2022 77.4501 23.3991 77.4501C23.5271 77.4501 23.6256 77.4944 23.6945 77.5828C23.7634 77.6614 23.8225 77.7941 23.8717 77.9808C23.9701 78.4426 24.1621 78.6735 24.4476 78.6735C24.8316 78.6735 25.1565 78.4229 25.4223 77.9218C25.6881 77.4207 25.9195 76.6198 26.1164 75.5193C26.3133 74.409 26.5003 72.9105 26.6775 71.0239C26.7169 70.6014 26.6431 70.2821 26.456 70.0659C26.2788 69.8399 26.0031 69.6925 25.629 69.6237L25.2746 69.55L25.4666 69.0489H32.0973L32.2745 69.2847L32.0973 69.55Z" fill="#1C4B1B"/>
<path d="M36.2149 76.9343C36.2149 77.74 36.3773 78.2657 36.7022 78.5114C37.0271 78.7472 37.4111 78.8651 37.8541 78.8651C38.5432 78.8651 39.0847 78.644 39.4785 78.2018C39.8723 77.7597 40.0692 77.1799 40.0692 76.4626C40.0692 76.0401 39.9708 75.6569 39.7739 75.313C39.577 74.9592 39.3013 74.6841 38.9469 74.4876C38.5925 74.2812 38.1839 74.1781 37.7212 74.1781C37.4554 74.1781 37.2338 74.2026 37.0566 74.2518C36.8893 74.2911 36.7859 74.3107 36.7465 74.3107C36.6776 74.3107 36.6235 74.2812 36.5841 74.2223C36.5545 74.1535 36.5398 74.07 36.5398 73.9717C36.5398 73.7949 36.6776 73.6671 36.9533 73.5885C37.2289 73.5001 37.5686 73.4559 37.9722 73.4559C38.7008 73.4559 39.3407 73.5983 39.892 73.8833C40.4433 74.1584 40.8667 74.5318 41.162 75.0035C41.4574 75.4751 41.6051 75.9861 41.6051 76.5363C41.6051 77.4993 41.2999 78.2559 40.6895 78.8061C40.0791 79.3564 39.1044 79.6315 37.7655 79.6315H33.6453L33.4681 79.1304L33.8225 79.042C34.1868 78.9437 34.4329 78.8061 34.5609 78.6293C34.6889 78.4426 34.7529 78.1232 34.7529 77.6712V71.0092C34.7529 70.567 34.6889 70.2526 34.5609 70.0659C34.4329 69.8792 34.1868 69.7367 33.8225 69.6384L33.4681 69.55L33.6453 69.0489H36.8942L37.0862 69.2847L36.8942 69.55C36.6481 69.8841 36.4709 70.2329 36.3626 70.5965C36.2641 70.9601 36.2149 71.4317 36.2149 72.0114V76.9343Z" fill="#1C4B1B"/>
<path d="M48.8158 79.1304L49.1555 79.042C49.5296 78.9339 49.7806 78.7914 49.9086 78.6145C50.0366 78.4377 50.1006 78.1232 50.1006 77.6712V74.7087H45.2716V77.7744C45.2716 78.1969 45.3307 78.4917 45.4488 78.6587C45.5669 78.8258 45.8081 78.9634 46.1724 79.0714L46.4825 79.1599L46.3201 79.6315H42.702L42.5248 79.1304L42.8645 79.042C43.2386 78.9339 43.4896 78.7914 43.6176 78.6145C43.7456 78.4377 43.8096 78.1232 43.8096 77.6712V71.0092C43.8096 70.5572 43.7456 70.2428 43.6176 70.0659C43.4896 69.889 43.2386 69.7465 42.8645 69.6384L42.5248 69.55L42.702 69.0489H45.9361L46.1281 69.2847L45.9361 69.55C45.69 69.8743 45.5177 70.2182 45.4193 70.5817C45.3208 70.9453 45.2716 71.4219 45.2716 72.0114V73.8096H50.1006V71.0092C50.1006 70.5572 50.0366 70.2428 49.9086 70.0659C49.7806 69.889 49.5296 69.7465 49.1555 69.6384L48.8158 69.55L48.993 69.0489H52.2271L52.4191 69.2847L52.2271 69.55C51.981 69.8743 51.8087 70.2182 51.7103 70.5817C51.6118 70.9453 51.5626 71.4219 51.5626 72.0114V77.7744C51.5626 78.1969 51.6217 78.4917 51.7398 78.6587C51.8579 78.8258 52.0991 78.9634 52.4634 79.0714L52.7735 79.1599L52.6111 79.6315H48.993L48.8158 79.1304Z" fill="#1C4B1B"/>
<path d="M64.0161 79.1599L63.8684 79.6315H60.2503L60.0731 79.1304L60.398 79.042C60.6638 78.9732 60.8607 78.8946 60.9887 78.8061C61.1167 78.7177 61.2053 78.59 61.2545 78.4229C61.3136 78.2461 61.3431 77.9955 61.3431 77.6712V72.0851L56.3665 77.4944V77.7744C56.3665 78.1969 56.4255 78.4917 56.5437 78.6587C56.6618 78.8258 56.8981 78.9634 57.2525 79.0714L57.5626 79.1599L57.415 79.6315H53.7821L53.6049 79.1304L53.9593 79.042C54.2251 78.9634 54.422 78.8798 54.55 78.7914C54.678 78.703 54.7666 78.5752 54.8158 78.4082C54.8749 78.2313 54.9045 77.9857 54.9045 77.6712V71.0092C54.9045 70.5572 54.8405 70.2428 54.7125 70.0659C54.5845 69.889 54.3334 69.7465 53.9593 69.6384L53.6049 69.55L53.7821 69.0489H57.031L57.223 69.2847L57.031 69.55C56.7849 69.8743 56.6126 70.2182 56.5141 70.5817C56.4157 70.9453 56.3665 71.4219 56.3665 72.0114V76.2858L61.3431 70.8913C61.3333 70.4884 61.2644 70.2034 61.1364 70.0364C61.0084 69.8595 60.7623 69.7269 60.398 69.6384L60.0731 69.55L60.2503 69.0489H63.4697L63.6912 69.2847L63.4697 69.55C63.2137 69.8644 63.0365 70.2034 62.938 70.567C62.8396 70.9306 62.7904 71.412 62.7904 72.0114V77.7744C62.7904 78.2067 62.8544 78.5064 62.9823 78.6735C63.1103 78.8405 63.3565 78.9732 63.7207 79.0714L64.0161 79.1599Z" fill="#1C4B1B"/>
<path d="M69.6048 79.042C69.8706 78.9634 70.0626 78.8798 70.1807 78.7914C70.3087 78.703 70.3973 78.5752 70.4466 78.4082C70.5056 78.2313 70.5352 77.9857 70.5352 77.6712V74.7234C70.0626 75.0772 69.6097 75.3425 69.1766 75.5193C68.7532 75.6962 68.2413 75.7846 67.6407 75.7846C66.8137 75.7846 66.1738 75.5881 65.7209 75.1951C65.2779 74.802 65.0564 74.2223 65.0564 73.4559V71.6282C65.0564 71.0288 65.0219 70.5916 64.953 70.3164C64.8939 70.0315 64.7758 69.7711 64.5986 69.5353L64.3918 69.2847L64.5986 69.0341L66.5184 68.8278V73.0726C66.5184 73.6426 66.6611 74.0602 66.9466 74.3255C67.2321 74.5809 67.6653 74.7087 68.2462 74.7087C68.768 74.7087 69.1913 74.6252 69.5162 74.4581C69.8509 74.2812 70.1906 74.0307 70.5352 73.7064V71.0092C70.5352 70.5572 70.4712 70.2428 70.3432 70.0659C70.2251 69.889 69.9789 69.7465 69.6048 69.6384L69.2356 69.55L69.4276 69.0489H72.6617L72.8537 69.2847L72.6617 69.55C72.4156 69.8743 72.2433 70.2182 72.1448 70.5817C72.0562 70.9453 72.0119 71.4219 72.0119 72.0114V77.7744C72.0119 78.2067 72.071 78.5064 72.1891 78.6735C72.3073 78.8307 72.5436 78.9634 72.898 79.0714L73.2229 79.1599L73.0457 79.6315H69.4276L69.2356 79.1304L69.6048 79.042Z" fill="#1C4B1B"/>
<path d="M80.0888 79.1304L80.4284 79.042C80.6647 78.983 80.8321 78.9044 80.9305 78.8061C81.0388 78.7079 81.093 78.5703 81.093 78.3934C81.093 78.2362 81.0388 77.9955 80.9305 77.6712L80.2217 75.6078H76.8104L76.4559 76.6837C76.2295 77.3617 76.1163 77.8776 76.1163 78.2313C76.1163 78.5654 76.1852 78.8651 76.323 79.1304L76.4559 79.3957L76.1754 79.6315H73.4581L73.2809 79.1304L73.6206 79.042C74.0144 78.9339 74.2999 78.7914 74.4771 78.6145C74.6543 78.4377 74.8217 78.1232 74.9792 77.6712L77.2977 71.0092C77.406 70.6849 77.4601 70.4442 77.4601 70.287C77.4601 70.1101 77.406 69.9725 77.2977 69.8743C77.1992 69.776 77.0319 69.6974 76.7956 69.6384L76.4559 69.55L76.6332 69.0489H79.4833L82.4516 77.5975C82.6091 78.0495 82.7814 78.3934 82.9685 78.6293C83.1555 78.8651 83.4263 79.1206 83.7807 79.3957L83.5887 79.6315H80.266L80.0888 79.1304ZM77.1205 74.6939H79.9116L78.4939 70.567L77.1205 74.6939Z" fill="#1C4B1B"/>
<path d="M90.8256 79.1304L91.1653 79.042C91.5394 78.9339 91.7905 78.7914 91.9185 78.6145C92.0464 78.4377 92.1104 78.1232 92.1104 77.6712V74.7087H87.2814V77.7744C87.2814 78.1969 87.3405 78.4917 87.4586 78.6587C87.5768 78.8258 87.818 78.9634 88.1823 79.0714L88.4924 79.1599L88.3299 79.6315H84.7119L84.5346 79.1304L84.8743 79.042C85.2484 78.9339 85.4995 78.7914 85.6274 78.6145C85.7554 78.4377 85.8194 78.1232 85.8194 77.6712V71.0092C85.8194 70.5572 85.7554 70.2428 85.6274 70.0659C85.4995 69.889 85.2484 69.7465 84.8743 69.6384L84.5346 69.55L84.7119 69.0489H87.946L88.1379 69.2847L87.946 69.55C87.6998 69.8743 87.5275 70.2182 87.4291 70.5817C87.3306 70.9453 87.2814 71.4219 87.2814 72.0114V73.8096H92.1104V71.0092C92.1104 70.5572 92.0464 70.2428 91.9185 70.0659C91.7905 69.889 91.5394 69.7465 91.1653 69.6384L90.8256 69.55L91.0029 69.0489H94.237L94.4289 69.2847L94.237 69.55C93.9908 69.8743 93.8186 70.2182 93.7201 70.5817C93.6217 70.9453 93.5724 71.4219 93.5724 72.0114V77.7744C93.5724 78.1969 93.6315 78.4917 93.7496 78.6587C93.8678 78.8258 94.109 78.9634 94.4733 79.0714L94.7834 79.1599L94.6209 79.6315H91.0029L90.8256 79.1304Z" fill="#1C4B1B"/>
<path d="M98.4354 77.7744C98.4354 78.1969 98.4944 78.4917 98.6126 78.6587C98.7307 78.8258 98.967 78.9634 99.3214 79.0714L99.6315 79.1599L99.4839 79.6315H95.851L95.6738 79.1304L96.0282 79.042C96.2941 78.9634 96.491 78.8798 96.6189 78.7914C96.7469 78.703 96.8355 78.5752 96.8848 78.4082C96.9438 78.2313 96.9734 77.9857 96.9734 77.6712V71.0092C96.9734 70.5572 96.9094 70.2428 96.7814 70.0659C96.6534 69.889 96.4023 69.7465 96.0282 69.6384L95.6738 69.55L95.851 69.0489H99.0999L99.2919 69.2847L99.0999 69.55C98.8538 69.8743 98.6815 70.2182 98.583 70.5817C98.4846 70.9453 98.4354 71.4219 98.4354 72.0114V77.7744ZM105.051 79.2483C104.667 79.6413 104.195 79.8379 103.634 79.8379C103.181 79.8379 102.797 79.72 102.482 79.4841C102.176 79.2385 101.906 78.8749 101.669 78.3934L100.326 75.7109C100.168 75.4063 99.9712 75.1656 99.7349 74.9887C99.4986 74.802 99.2033 74.6497 98.8489 74.5318C98.8292 74.522 98.8095 74.5023 98.7898 74.4729C98.7799 74.4336 98.775 74.3992 98.775 74.3697C98.775 74.1339 98.8784 74.0159 99.0851 74.0159H99.4248L101.832 70.9502C102.019 70.7144 102.112 70.454 102.112 70.1691C102.112 69.9234 102.044 69.7072 101.906 69.5205L101.743 69.2847L102.009 69.0489H104.549L104.726 69.55L104.372 69.6384C104.155 69.6876 103.954 69.776 103.766 69.9038C103.589 70.0217 103.407 70.1985 103.22 70.4344L100.237 74.237C100.71 74.3156 101.103 74.4827 101.418 74.7382C101.743 74.9936 102.029 75.3621 102.275 75.8436L103.663 78.5851C103.742 78.7324 103.826 78.8454 103.914 78.9241C104.003 78.9928 104.111 79.0272 104.239 79.0272C104.446 79.0272 104.638 78.9584 104.815 78.8209L105.051 79.2483Z" fill="#1C4B1B"/>
<path d="M111.773 79.1304L112.112 79.042C112.349 78.983 112.516 78.9044 112.615 78.8061C112.723 78.7079 112.777 78.5703 112.777 78.3934C112.777 78.2362 112.723 77.9955 112.615 77.6712L111.906 75.6078H108.494L108.14 76.6837C107.914 77.3617 107.8 77.8776 107.8 78.2313C107.8 78.5654 107.869 78.8651 108.007 79.1304L108.14 79.3957L107.859 79.6315H105.142L104.965 79.1304L105.305 79.042C105.698 78.9339 105.984 78.7914 106.161 78.6145C106.338 78.4377 106.506 78.1232 106.663 77.6712L108.982 71.0092C109.09 70.6849 109.144 70.4442 109.144 70.287C109.144 70.1101 109.09 69.9725 108.982 69.8743C108.883 69.776 108.716 69.6974 108.48 69.6384L108.14 69.55L108.317 69.0489H111.167L114.136 77.5975C114.293 78.0495 114.465 78.3934 114.653 78.6293C114.84 78.8651 115.11 79.1206 115.465 79.3957L115.273 79.6315H111.95L111.773 79.1304ZM108.805 74.6939H111.596L110.178 70.567L108.805 74.6939Z" fill="#1C4B1B"/>
<defs>
<clipPath id="clip0_8_34816">
<rect width="64.0644" height="61.1782" fill="white" transform="translate(25.9678)"/>
</clipPath>
</defs>
</svg>
